<?xml version="1.0" encoding="utf-8"?>
<!-- Generator: Adobe Illustrator 26.3.1, SVG Export Plug-In . SVG Version: 6.00 Build 0)  -->
<svg version="1.1" id="_fnBE7coCUm_cOkjFfZ7Jq" xmlns="http://www.w3.org/2000/svg" xmlns:xlink="http://www.w3.org/1999/xlink"
	 x="0px" y="0px" viewBox="0 0 1024 448" style="enable-background:new 0 0 1024 448;" xml:space="preserve">
<style type="text/css">
	.st0{fill:#FFFFFF;}
	.st1{fill:#232020;stroke:#232020;stroke-width:18.8292;stroke-miterlimit:9.4146;}
	.st2{fill:#232020;stroke:#232020;stroke-width:19.584;stroke-miterlimit:9.792;}
	.st3{fill:#232020;}
	.st4{fill:#D9D5CA;}
	.st5{fill:#37464A;}
</style>
<rect class="st0" width="1024" height="448"/>
<g transform="matrix(0.9915117025375366, 0, 0, 0.9915117025375366, 4.143365859985352, 23.80425453186035)">
	<path class="st1" d="M588.1,35.4c-24.6,2-50,10.1-73.7,23.6v137.9c23.7-13.2,49.1-21.1,73.7-23V35.4z"/>
	<path class="st2" d="M510.8,60.5c-24.6-14.1-51.1-22.5-76.6-24.6V180c25.6,2,52,10.3,76.6,23.9V60.5z"/>
	<path class="st2" d="M508.9,210.2c2,0.7,4.1,0.7,6.1,0c28.8-12.5,58.9-18.1,88.4-16.8V50.9c-2.7-0.1-5.3-0.1-8-0.1v132.3l-2.1,0.1
		c-26.3,1.7-53.7,10.3-79.1,24.8c-1.5,0.5-3.1,0.5-4.5,0c-25.4-14.5-52.7-23.1-79.1-24.8l-2.1-0.1V50.7c-2.7,0-5.3,0-8,0.1v142.6
		C450.1,192.2,480.2,197.8,508.9,210.2z"/>
	<path class="st2" d="M616.1,66.4c-2.6-0.4-5.3-0.6-8-0.8v132.2l-2.4-0.1c-30.1-1.7-61.9,4.4-91.3,17.4l-2.3,0.9l-2.3-0.9
		c-29.4-13.1-61.2-19.2-91.3-17.4l-2.4,0.1V65.5c-2.7,0.3-5.4,0.5-8,0.8v144.9c1.5,0.8,2.6,1.8,2.6,1.8c32-4.3,65.2-3.8,96.7,6.5
		c1.5-0.1,3-0.2,4.6-0.2c1.6,0,3.2,0.1,4.6,0.2c31.6-10.3,64.8-10.9,96.7-6.5c0,0,1.2-1.1,2.6-1.8V66.4z"/>
	<path class="st2" d="M547.5,45v50.9l-9.8-11.7l-10.4,11.7V53.2c-4.8,2.2-9.5,4.7-14.1,7.3v143.4c24.7-13.7,51.1-21.9,76.6-23.9
		V35.9C575.8,37.1,561.6,40.1,547.5,45z"/>
</g>
<path id="_N2pOnR4kNgVl5QpAy4aT0" class="st3" d="M387.1,398.2l-3.7-0.2l-4,0.2c-0.1-0.1-0.1-0.3-0.1-0.6s0.1-0.6,0.2-0.7l0,0
	c0.8,0,1.4-0.1,1.7-0.4c0.3-0.3,0.5-0.7,0.5-1.3l0,0l0.1-18.7h-2.7c-1.3,0-2.3,0.3-2.8,0.8c-0.5,0.6-0.9,1.5-1.1,2.7l0,0
	c-0.1,0.1-0.3,0.1-0.7,0.1c-0.3,0-0.6,0-0.6-0.1l0,0l0.6-5.7c2.5,0.2,5.3,0.4,8.4,0.4s6-0.1,8.5-0.4l0,0l0.5,5.7
	c-0.1,0.1-0.3,0.1-0.7,0.1s-0.6,0-0.6-0.1l0,0c-0.2-1.3-0.6-2.2-1.1-2.7c-0.5-0.6-1.4-0.8-2.7-0.8l0,0h-2.8l0.6,18.7
	c0,0.6,0.2,1,0.5,1.3c0.3,0.3,0.9,0.4,1.7,0.4l0,0c0.1,0.1,0.2,0.3,0.2,0.7S387.2,398.1,387.1,398.2L387.1,398.2z M426.8,396.2
	L426.8,396.2c-1.5,1.5-3.5,2.3-5.8,2.3c-2.3,0-4.1-0.8-5.3-2.4c-1.2-1.6-1.9-3.6-1.9-6c0-2.4,0.6-4.4,1.9-6c1.2-1.6,2.9-2.4,5.1-2.4
	s3.8,0.8,4.8,2.3c1,1.5,1.6,3.5,1.6,5.9l0,0h-10.4c0,1.8,0.4,3.3,1.2,4.6c0.8,1.2,1.9,1.9,3.4,1.9l0,0c2,0,3.7-0.5,5.1-1.5l0,0
	c0.1,0.1,0.2,0.2,0.3,0.5c0.1,0.2,0.2,0.4,0.2,0.5S426.9,396.1,426.8,396.2z M416.8,388.3L416.8,388.3l4.7,0c1.7,0,2.6-0.1,2.7-0.2
	l0,0c0-0.1,0-0.3,0-0.6l0,0c0-1-0.3-2-0.9-2.8s-1.5-1.3-2.6-1.3s-2,0.4-2.7,1.3S416.9,386.8,416.8,388.3z M457.7,398.2l-4-0.2
	l-4.2,0.2c-0.1-0.1-0.1-0.3-0.1-0.6c0-0.3,0.1-0.5,0.2-0.7l0,0c0.9,0,1.6-0.1,2-0.4c0.4-0.3,0.6-0.7,0.6-1.3l0,0l0.1-9.4
	c0-0.6-0.2-1.1-0.6-1.3s-1.1-0.4-2-0.4l0,0c-0.1-0.1-0.1-0.3-0.1-0.6s0.1-0.5,0.2-0.7l0,0c0.1,0,0.3,0,0.6-0.1
	c0.3,0,0.5-0.1,0.6-0.1c0.1,0,0.3,0,0.5-0.1c0.3-0.1,0.5-0.1,0.6-0.2l0,0c0.4-0.2,0.8-0.5,0.9-0.6s0.4-0.3,0.7-0.3
	c0.3,0,0.5,0,0.6,0.1l0,0l0.3,2.9c1.5-1.4,2.9-2.3,4-2.6l0,0c0.6-0.2,1.1-0.3,1.7-0.3l0,0c1.1,0,2.1,0.3,2.9,0.8
	c0.8,0.5,1.4,1.3,1.8,2.3l0,0c2-2,4-3.1,5.9-3.1l0,0c1.5,0,2.7,0.5,3.6,1.4s1.4,2.2,1.5,3.8l0,0l0.3,8.3c0,0.6,0.2,1.1,0.6,1.3
	c0.4,0.3,1,0.4,1.9,0.4l0,0c0.1,0.1,0.2,0.3,0.2,0.7c0,0.3,0,0.5-0.1,0.6l0,0l-4-0.2l-4.2,0.2c-0.1-0.1-0.1-0.3-0.1-0.6
	c0-0.3,0.1-0.5,0.2-0.7l0,0c0.9,0,1.6-0.1,2-0.4c0.4-0.3,0.6-0.7,0.6-1.3l0,0l0-7.7c0-1.1-0.3-2-0.9-2.7c-0.6-0.7-1.5-1-2.7-1
	c-1.2,0-2.6,0.9-4.4,2.6l0,0l0.3,8.8c0,0.6,0.2,1.1,0.6,1.3c0.4,0.3,1,0.4,1.9,0.4l0,0c0.1,0.1,0.2,0.3,0.2,0.7c0,0.3,0,0.5-0.1,0.6
	l0,0l-4-0.2l-4.2,0.2c-0.1-0.1-0.1-0.3-0.1-0.6c0-0.3,0.1-0.5,0.2-0.7l0,0c0.9,0,1.5-0.1,1.9-0.4c0.4-0.3,0.6-0.7,0.6-1.3l0,0
	l0.1-7.7c0-1.1-0.3-2-0.9-2.7s-1.5-1-2.6-1l0,0c-0.4,0-0.9,0.1-1.4,0.3c-0.5,0.2-0.9,0.4-1.2,0.7l0,0c-0.9,0.7-1.5,1.2-1.9,1.6l0,0
	l0.3,8.8c0,0.6,0.2,1.1,0.6,1.3c0.4,0.3,1,0.4,1.9,0.4l0,0c0.1,0.1,0.2,0.3,0.2,0.7C457.7,398,457.7,398.2,457.7,398.2L457.7,398.2z
	 M513.5,390L513.5,390c0-1.8-0.4-3.3-1.2-4.5c-0.8-1.3-1.9-1.9-3.4-1.9l0,0c-0.7,0-1.5,0.3-2.4,0.9c-0.8,0.6-1.5,1.2-1.9,1.9l0,0
	l0.3,6.9c0,0.9,0.5,1.7,1.4,2.5s1.8,1.1,2.7,1.1l0,0C512,396.9,513.5,394.6,513.5,390z M507.9,407.6l-4-0.2l-4.2,0.2
	c-0.1-0.1-0.1-0.3-0.1-0.6c0-0.3,0.1-0.5,0.2-0.7l0,0c0.9,0,1.5-0.1,2-0.4c0.4-0.3,0.6-0.7,0.6-1.3l0,0l0.1-18.7
	c0-0.6-0.2-1.1-0.7-1.3s-1.1-0.4-2.1-0.4l0,0c-0.1-0.1-0.1-0.3-0.1-0.6s0.1-0.5,0.2-0.7l0,0c1.2-0.2,2.3-0.5,3.3-1.1l0,0
	c0.2-0.1,0.4-0.1,0.6-0.1c0.2,0,0.4,0,0.6,0.1l0,0l0.3,2.6c1.4-1.8,3.1-2.7,5-2.7l0,0c2.3,0,3.9,0.8,5.1,2.3s1.7,3.5,1.7,5.9
	s-0.6,4.4-1.9,6.1s-3,2.5-5.1,2.5l0,0c-1.7,0-3.2-0.7-4.5-2l0,0l0.3,8.1c0,0.6,0.2,1.1,0.6,1.3c0.4,0.3,1,0.4,1.9,0.4l0,0
	c0.1,0.1,0.2,0.3,0.2,0.7S507.9,407.5,507.9,407.6L507.9,407.6z M546.5,398.2l-4-0.2l-4.2,0.2c-0.1-0.1-0.1-0.3-0.1-0.6
	s0.1-0.5,0.2-0.6l0,0c0.9,0,1.6-0.1,2-0.4c0.4-0.3,0.6-0.7,0.6-1.3l0,0l0.3-18.4c0-1.1-0.9-1.7-2.8-1.7l0,0
	c-0.1-0.1-0.1-0.3-0.1-0.6c0-0.3,0.1-0.5,0.2-0.7l0,0c1.2-0.1,2.4-0.5,3.6-1.2l0,0c0.2-0.1,0.4-0.1,0.6-0.1c0.2,0,0.4,0,0.6,0.1l0,0
	l0.5,22.5c0,0.6,0.2,1.1,0.6,1.3c0.4,0.3,1,0.4,1.9,0.4l0,0c0.1,0.1,0.2,0.3,0.2,0.6S546.6,398.2,546.5,398.2L546.5,398.2z
	 M572.6,398.5c-1.2,0-2.3-0.4-3.1-1.2c-0.8-0.8-1.3-1.8-1.3-3c0-1.2,0.5-2.2,1.6-3.1c1-0.8,2.8-1.5,5.2-2l0,0l2.3-0.5V388
	c0-1.6-0.3-2.7-0.8-3.4s-1.4-1.1-2.6-1.1l0,0c-1.7,0-2.5,0.3-2.5,1l0,0c0,0.1,0.1,0.4,0.4,0.7c0.3,0.3,0.4,0.6,0.4,1
	s-0.2,0.6-0.5,0.8c-0.3,0.2-0.7,0.3-1.2,0.3c-0.5,0-0.9-0.1-1.2-0.4c-0.3-0.3-0.5-0.7-0.5-1.2l0,0c0-1.1,0.6-2.1,1.7-2.8
	c1.1-0.7,2.3-1.1,3.6-1.1l0,0c2.1,0,3.6,0.4,4.5,1.3c0.9,0.9,1.3,2.1,1.3,3.5l0,0c0,0,0,2.7-0.1,7.9l0,0c0,1.4,0.5,2.1,1.4,2.1l0,0
	c0.4,0,0.9-0.1,1.4-0.3l0,0c0.2,0.3,0.2,0.5,0.2,0.8c0,0.2,0,0.4-0.1,0.4l0,0c-0.2,0.2-0.6,0.4-1.2,0.7c-0.6,0.2-1.1,0.3-1.8,0.3
	l0,0c-1,0-1.8-0.6-2.4-1.8l0,0C576,397.9,574.4,398.5,572.6,398.5L572.6,398.5z M575.6,391c-1.7,0.4-2.9,0.9-3.4,1.3
	c-0.6,0.4-0.9,1-0.9,1.8s0.2,1.4,0.6,1.8c0.4,0.5,0.9,0.7,1.5,0.7c0.6,0,1.3-0.1,2-0.4c0.8-0.3,1.4-0.6,2-0.9l0,0l-0.1-4.7
	L575.6,391z M608.5,392.4c0,1.4,0.2,2.5,0.5,3.1c0.3,0.6,0.9,1,1.8,1s1.9-0.3,3-0.9l0,0c0.1,0.1,0.2,0.3,0.3,0.5
	c0.1,0.2,0.2,0.4,0.2,0.5c0,0.1,0,0.1,0,0.2l0,0c-1.3,1.2-2.8,1.8-4.5,1.8l0,0c-2.7,0-4-1.8-4-5.5l0,0c0-0.1,0.1-3,0.2-8.8l0,0h-2.1
	c-0.1-0.1-0.2-0.4-0.2-0.7c0-0.3,0-0.5,0.1-0.6l0,0c1.2-0.3,2-0.7,2.5-1.3c0.5-0.6,0.8-1.4,1-2.5l0,0c0.1-0.1,0.3-0.1,0.6-0.1
	c0.3,0,0.5,0,0.6,0.1l0,0l0.1,3.2h5.1c0.1,0.3,0.2,0.6,0.2,1s-0.1,0.6-0.3,0.8l0,0h-5L608.5,392.4z M648.8,396.2L648.8,396.2
	c-1.5,1.5-3.5,2.3-5.8,2.3s-4.1-0.8-5.3-2.4c-1.2-1.6-1.9-3.6-1.9-6c0-2.4,0.6-4.4,1.9-6c1.2-1.6,2.9-2.4,5.1-2.4
	c2.2,0,3.8,0.8,4.8,2.3c1,1.5,1.6,3.5,1.6,5.9l0,0h-10.4c0,1.8,0.4,3.3,1.2,4.6c0.8,1.2,1.9,1.9,3.4,1.9l0,0c2,0,3.7-0.5,5.1-1.5
	l0,0c0.1,0.1,0.2,0.2,0.3,0.5c0.1,0.2,0.2,0.4,0.2,0.5C649,396,648.9,396.1,648.8,396.2z M638.8,388.3L638.8,388.3l4.7,0
	c1.7,0,2.6-0.1,2.7-0.2l0,0c0-0.1,0-0.3,0-0.6l0,0c0-1-0.3-2-0.9-2.8c-0.6-0.8-1.5-1.3-2.6-1.3s-2,0.4-2.7,1.3
	C639.4,385.6,638.9,386.8,638.8,388.3z"/>
<path id="_UNPg1hX3RU8DUWFILdl0X" class="st3" d="M270.8,271.5l13.3,0.7l12.1-0.7c0.2,0.2,0.2,0.9,0.2,2.1c0,1.2-0.2,2.1-0.6,2.5
	l0,0c-2.9,0-4.9,0.5-6.1,1.5c-1.2,1-1.8,2.6-1.8,4.8l0,0l1.9,58.1c0.2,3.4,0.8,5.7,1.9,7.1c1.1,1.3,3.1,2,6.1,2l0,0h9.9
	c3.8,0,6.9-1.2,9.5-3.7c2.5-2.5,5-6.5,7.4-11.9l0,0c0.2-0.2,0.8-0.2,1.9-0.2s2,0.4,2.7,1.1l0,0l-6.3,22.8c-10-1-19.7-1.6-28.9-1.6
	s-17.1,0.1-23.6,0.4l0,0c-0.2-0.2-0.4-0.9-0.4-2.1c0-1.2,0.2-2,0.7-2.5l0,0c5.4,0,8.1-2.1,8.1-6.3l0,0l0.7-63.1
	c0-2.2-0.6-3.8-1.9-4.8c-1.2-1-3.3-1.5-6.2-1.5l0,0c-0.6-0.4-0.8-1.2-0.8-2.5C270.5,272.4,270.6,271.7,270.8,271.5L270.8,271.5z
	 M350.4,357.5c-4.4,0-8.2-1.4-11.2-4.3c-3.1-2.9-4.6-6.5-4.6-10.9s1.9-8.1,5.6-11c3.7-2.9,9.9-5.3,18.6-7.1l0,0l8.3-1.7v-3
	c0-5.6-0.9-9.7-2.8-12.2s-5-3.8-9.5-3.8l0,0c-6.1,0-9.2,1.2-9.2,3.7l0,0c0,0.5,0.5,1.3,1.4,2.4c1,1.1,1.4,2.3,1.4,3.5
	c0,1.2-0.5,2.3-1.6,3c-1.1,0.8-2.5,1.1-4.3,1.1c-1.8,0-3.2-0.5-4.3-1.6c-1.1-1-1.6-2.5-1.6-4.3l0,0c0-4.1,2-7.5,6-10.1
	c4-2.7,8.3-4,13-4l0,0c7.6,0,12.9,1.6,16.2,4.8s4.8,7.4,4.8,12.7l0,0c0,0.2-0.2,9.7-0.5,28.6l0,0c-0.1,5.1,1.6,7.7,5.2,7.7l0,0
	c1.4,0,3.1-0.4,4.9-1.2l0,0c0.6,1,0.8,1.9,0.8,2.7s-0.1,1.3-0.2,1.5l0,0c-0.8,0.8-2.2,1.6-4.2,2.4c-2,0.8-4.1,1.1-6.4,1.1l0,0
	c-3.5,0-6.4-2.2-8.7-6.5l0,0C362.5,355.3,356.8,357.5,350.4,357.5L350.4,357.5z M361,330.4c-6.2,1.5-10.3,3.1-12.4,4.6
	c-2,1.6-3.1,3.7-3.1,6.4c0,2.7,0.7,4.9,2.2,6.6s3.2,2.5,5.3,2.5c2.1,0,4.5-0.5,7.3-1.4c2.8-0.9,5.2-2,7.2-3.2l0,0l-0.2-17.1
	L361,330.4z M428.7,356.3l-13.3-0.7l-14.3,0.7c-0.2-0.2-0.4-1-0.4-2.2c0-1.2,0.2-2,0.6-2.4l0,0c2.9,0,5-0.5,6.2-1.5
	c1.2-1,1.9-2.6,1.9-4.8l0,0l0.5-67.5h-9.8c-4.8,0-8.1,1-9.9,3c-1.8,2-3.1,5.3-3.9,9.9l0,0c-0.3,0.3-1.1,0.5-2.4,0.5
	c-1.2,0-2-0.2-2.2-0.5l0,0l2-20.5c8.9,0.9,19.1,1.3,30.4,1.3s21.5-0.4,30.6-1.3l0,0l1.8,20.5c-0.3,0.3-1.1,0.5-2.4,0.5
	c-1.2,0-2-0.2-2.2-0.5l0,0c-0.8-4.6-2.1-7.9-3.8-9.9c-1.7-2-5-3-9.8-3l0,0h-10l2.2,67.5c0.1,2.2,0.7,3.8,1.9,4.8
	c1.2,1,3.2,1.5,6.1,1.5l0,0c0.4,0.4,0.6,1.2,0.6,2.4C429.1,355.3,429,356,428.7,356.3L428.7,356.3z M500.8,349.2L500.8,349.2
	c-5.5,5.5-12.5,8.3-20.8,8.3c-8.3,0-14.7-2.8-19.2-8.5s-6.8-12.9-6.8-21.6s2.2-15.9,6.7-21.6c4.5-5.7,10.6-8.6,18.4-8.6
	c7.8,0,13.6,2.8,17.4,8.3s5.6,12.6,5.6,21.3l0,0h-37.5c0,6.5,1.4,12,4.3,16.5c2.9,4.5,6.9,6.7,12.2,6.7l0,0c7.2,0,13.3-1.8,18.3-5.4
	l0,0c0.3,0.2,0.7,0.8,1.2,1.7c0.5,0.9,0.7,1.5,0.7,1.9C501.4,348.4,501.2,348.8,500.8,349.2z M464.8,320.5L464.8,320.5l17,0.1
	c6.1,0,9.4-0.2,9.8-0.7l0,0c0.1-0.4,0.1-1.1,0.1-2l0,0c0-3.8-1.1-7.2-3.3-10.2s-5.3-4.6-9.3-4.6s-7.4,1.6-9.9,4.8
	C466.7,310.9,465.2,315.2,464.8,320.5z M523.8,272.6L523.8,272.6l17.1-1.1c0.2,0.3,0.2,1,0.2,2.1c0,1.1-0.3,1.9-0.8,2.5l0,0
	c-4.3,0-6.4,1-6.4,3.1l0,0c0,1.8,1.7,5.1,5.1,9.9l0,0l11.7,16.4l16.6-22.1c1-1.4,1.6-2.6,1.6-3.6l0,0c0-2.5-2.8-3.7-8.3-3.7l0,0
	c-0.5-0.3-0.7-1.1-0.7-2.4c0-1.3,0.1-2,0.2-2.2l0,0c1.4,0,3.8,0.2,7.4,0.5c3.6,0.4,6.5,0.5,8.7,0.5s5.1-0.2,8.6-0.5
	c3.5-0.4,6-0.5,7.4-0.5l0,0c0.2,0.2,0.2,0.8,0.2,1.9s-0.3,2-1,2.7l0,0c-3.9,0-6.5,0.4-7.8,1.1s-3.5,3-6.4,6.9l0,0l-21.5,28.7
	c13.7,19.5,21,29.6,21.8,30.4c0.8,0.8,1.6,1.8,2.5,2.8c0.9,1,1.7,1.8,2.3,2.2c0.6,0.4,1.3,0.9,2.2,1.5s1.7,1,2.5,1.3l0,0
	c1.9,0.5,3.7,0.7,5.3,0.7l0,0c0.6,0.7,0.8,1.6,0.8,2.7s-0.1,1.7-0.2,1.9l0,0c-1.4,0-3.6-0.2-6.8-0.5c-3.1-0.3-5.9-0.5-8.2-0.5l0,0
	l-18.7,1c-0.2-0.1-0.2-0.7-0.2-1.9c0-1.2,0.3-2.1,0.8-2.7l0,0c4,0,6-1,6-3l0,0c0-1.8-1.8-5.2-5.3-10.4l0,0l-11.5-16.5l-16.8,22.8
	c-1.5,2.1-2.3,3.7-2.3,4.7l0,0c0,1.6,2.4,2.4,7.2,2.4l0,0c0.6,0.6,0.8,1.4,0.8,2.6c0,1.2-0.1,1.8-0.2,2l0,0c-1.4,0-3.6-0.2-6.6-0.5
	c-3.1-0.3-5.7-0.5-8-0.5l0,0l-15.9,1c-0.2-0.2-0.2-0.8-0.2-1.9c0-1.1,0.3-2,1-2.7l0,0c3.1,0,5.6-0.5,7.6-1.4s4.3-3.1,6.8-6.5l0,0
	l21.7-29.3c-7-9.8-11.6-16.3-13.8-19.4s-3.7-5.2-4.3-6.1s-1.6-2.3-2.9-3.9s-2.2-2.7-2.8-3.4c-0.6-0.6-1.5-1.4-2.6-2.4
	s-2-1.5-2.8-1.9l0,0c-2.3-0.9-4.5-1.3-6.6-1.3l0,0c-0.5-0.4-0.7-1.2-0.7-2.5c0-1.2,0.1-1.9,0.2-2.1l0,0c1.3,0,3.7,0.2,7.3,0.5
	C518.6,272.4,521.5,272.6,523.8,272.6z M634,329.9L634,329.9c-3.1-0.2-8.9-0.2-17.7-0.2s-14.5,0.1-17.4,0.2l0,0
	c-0.7-1.8-1.1-3.3-1.1-4.7s0.2-2.3,0.7-2.9l0,0c1.4,0.2,7.4,0.2,17.8,0.2s16.4-0.1,18-0.2l0,0c0.4,1.4,0.6,2.9,0.6,4.4
	C634.9,328.2,634.6,329.2,634,329.9z M682,357.5L682,357.5c-9.9,0-17.7-4.2-23.4-12.7c-5.7-8.4-8.6-18.9-8.6-31.2s3.2-22.7,9.5-30.9
	c6.4-8.2,15-12.4,25.9-12.4l0,0c6.5,0,12.2,1.3,17.1,4l0,0c0.3,0.2,0.6,0.2,1,0.2c0.3,0,0.5-0.4,0.6-1.3l0,0l0.2-2.9
	c0.3-0.3,1-0.5,2.2-0.5s1.9,0.2,2.4,0.5l0,0l1.7,25.2c-0.3,0.3-1.1,0.5-2.4,0.5c-1.2,0-2-0.2-2.2-0.5l0,0c-0.7-5.5-3.1-9.9-7.2-13.2
	c-4.1-3.3-8.8-4.9-14.2-4.9l0,0c-8.1,0-14.1,2.9-18,8.8c-3.9,5.9-5.8,13.7-5.8,23.6l0,0c0,14.5,3.7,25.6,11.1,33.2l0,0
	c3.9,4.1,8.3,6.1,13,6.1c4.7,0,9.5-0.9,14.5-2.7c5-1.8,9-3.9,11.9-6.4l0,0c0.3,0.3,0.7,1,1.3,2s0.8,1.7,0.8,2c0,0.3-0.1,0.6-0.4,0.8
	l0,0C704.6,353.3,694.3,357.5,682,357.5z M736.8,272.2L736.8,272.2l11.7-0.7c0.2,0.2,0.2,0.9,0.2,2.1c0,1.2-0.2,2.1-0.6,2.5l0,0
	c-2.9,0-4.9,0.5-6,1.5c-1.1,1-1.7,2.6-1.7,4.8l0,0l1.8,63.1c0.1,2.2,0.7,3.8,1.9,4.8c1.2,1,3.2,1.5,6.1,1.5l0,0
	c0.4,0.4,0.6,1.2,0.6,2.5c0,1.2-0.1,1.9-0.2,2.1l0,0l-13.4-0.7l-14.3,0.7c-0.2-0.2-0.4-0.9-0.4-2.1c0-1.2,0.2-2,0.7-2.5l0,0
	c2.9,0,5-0.5,6.2-1.5c1.2-1,1.9-2.6,1.9-4.8l0,0l0.5-63.1c0-2.2-0.6-3.8-1.7-4.8c-1.2-1-3.2-1.5-6.1-1.5l0,0
	c-0.5-0.4-0.7-1.2-0.7-2.5c0-1.2,0.1-1.9,0.2-2.1l0,0C723.4,271.5,727.9,271.8,736.8,272.2z"/>
<g transform="matrix(0.9915117025375366, 0, 0, 0.9915117025375366, 4.1360063552856445, 23.811614990234375)">
	<path class="st4" d="M510.1,59.3c-23.1-13.3-48-21.4-72-23.4v136.8c24.1,1.9,48.8,9.7,72,22.7V59.3z"/>
	<path class="st4" d="M509.2,208.1c2,0.7,4,0.7,6,0c28.2-12.2,57.8-17.7,86.7-16.4V51.8c-2.6-0.1-5.2-0.1-7.8-0.1v129.7l-2.1,0.1
		c-25.8,1.7-52.6,10.1-77.5,24.3c-1.4,0.5-3,0.5-4.4,0c-24.9-14.2-51.7-22.6-77.5-24.3l-2.1-0.1V51.7c-2.6,0-5.2,0-7.8,0.1v139.8
		C451.5,190.4,481,195.9,509.2,208.1z"/>
	<path class="st5" d="M616.1,66.4c-2.6-0.4-5.3-0.6-8-0.8v132.2l-2.4-0.1c-30.1-1.7-61.9,4.4-91.3,17.4l-2.3,0.9l-2.3-0.9
		c-29.4-13.1-61.2-19.2-91.3-17.4l-2.4,0.1V65.5c-2.7,0.3-5.4,0.5-8,0.8v144.9c1.5,0.8,2.6,1.8,2.6,1.8c32-4.3,65.2-3.8,96.7,6.5
		c1.5-0.1,3-0.2,4.6-0.2c1.6,0,3.2,0.1,4.6,0.2c31.6-10.3,64.8-10.9,96.7-6.5c0,0,1.2-1.1,2.6-1.8V66.4z"/>
	<path class="st4" d="M549,44.7v48.8l-8.8-11.2l-9.3,11.2V52.5c-4.3,2.2-8.5,4.5-12.6,7V197c22.1-13.1,45.8-21,68.7-23V36
		C574.4,37.1,561.6,40,549,44.7z"/>
</g>
</svg>
